<svg xmlns="http://www.w3.org/2000/svg" xmlns:xlink="http://www.w3.org/1999/xlink" width="100" zoomAndPan="magnify" viewBox="0 0 75 74.999997" height="100" preserveAspectRatio="xMidYMid meet" version="1.0"><defs><clipPath id="537965bd70"><path d="M 25.613281 25.613281 L 49.613281 25.613281 L 49.613281 49.613281 L 25.613281 49.613281 Z M 25.613281 25.613281 " clip-rule="nonzero"/></clipPath></defs><g clip-path="url(#537965bd70)"><path fill="#3b57ab" d="M 45.921875 25.613281 L 29.304688 25.613281 C 28.816406 25.613281 28.347656 25.707031 27.894531 25.894531 C 27.441406 26.082031 27.042969 26.351562 26.695312 26.695312 C 26.351562 27.042969 26.082031 27.441406 25.894531 27.894531 C 25.707031 28.347656 25.613281 28.816406 25.613281 29.304688 L 25.613281 45.921875 C 25.613281 46.410156 25.707031 46.882812 25.894531 47.332031 C 26.082031 47.785156 26.351562 48.183594 26.695312 48.53125 C 27.042969 48.878906 27.441406 49.144531 27.894531 49.332031 C 28.347656 49.519531 28.816406 49.613281 29.304688 49.613281 L 45.921875 49.613281 C 46.410156 49.613281 46.882812 49.519531 47.332031 49.332031 C 47.785156 49.144531 48.183594 48.878906 48.53125 48.53125 C 48.878906 48.183594 49.144531 47.785156 49.332031 47.332031 C 49.519531 46.882812 49.613281 46.410156 49.613281 45.921875 L 49.613281 29.304688 C 49.613281 28.816406 49.519531 28.347656 49.332031 27.894531 C 49.144531 27.441406 48.878906 27.042969 48.53125 26.695312 C 48.183594 26.351562 47.785156 26.082031 47.332031 25.894531 C 46.882812 25.707031 46.410156 25.613281 45.921875 25.613281 Z M 45.921875 32.535156 C 45.921875 32.964844 45.839844 33.378906 45.675781 33.773438 C 45.511719 34.167969 45.277344 34.519531 44.976562 34.820312 C 44.671875 35.125 44.324219 35.359375 43.925781 35.523438 C 43.53125 35.6875 43.121094 35.769531 42.691406 35.769531 C 42.261719 35.769531 41.851562 35.6875 41.453125 35.523438 C 41.058594 35.359375 40.710938 35.125 40.40625 34.820312 C 40.101562 34.519531 39.871094 34.167969 39.707031 33.773438 C 39.542969 33.378906 39.460938 32.964844 39.460938 32.535156 C 39.460938 32.109375 39.542969 31.695312 39.707031 31.300781 C 39.871094 30.90625 40.101562 30.554688 40.40625 30.253906 C 40.710938 29.949219 41.058594 29.714844 41.453125 29.550781 C 41.851562 29.386719 42.261719 29.304688 42.691406 29.304688 C 43.117188 29.308594 43.53125 29.390625 43.925781 29.554688 C 44.320312 29.71875 44.671875 29.949219 44.972656 30.253906 C 45.277344 30.554688 45.511719 30.90625 45.675781 31.300781 C 45.839844 31.695312 45.921875 32.109375 45.921875 32.535156 Z M 47.769531 45.921875 C 47.765625 46.167969 47.71875 46.402344 47.625 46.628906 C 47.53125 46.855469 47.398438 47.054688 47.226562 47.226562 C 47.054688 47.398438 46.855469 47.53125 46.628906 47.625 C 46.402344 47.71875 46.167969 47.765625 45.921875 47.769531 L 29.304688 47.769531 C 29.0625 47.765625 28.824219 47.71875 28.601562 47.625 C 28.375 47.53125 28.175781 47.398438 28 47.226562 C 27.828125 47.054688 27.695312 46.855469 27.601562 46.628906 C 27.507812 46.402344 27.460938 46.167969 27.460938 45.921875 L 27.460938 45.289062 L 31.429688 39.617188 C 31.796875 39.085938 32.296875 38.824219 32.941406 38.828125 L 32.964844 38.828125 C 33.617188 38.832031 34.121094 39.105469 34.480469 39.652344 L 37.769531 44.585938 C 37.941406 44.84375 38.179688 44.980469 38.488281 44.996094 C 38.792969 45.007812 39.046875 44.898438 39.246094 44.664062 L 41.761719 41.644531 C 42.128906 41.207031 42.597656 40.984375 43.167969 40.980469 C 43.75 40.957031 44.222656 41.171875 44.582031 41.625 L 47.769531 45.339844 Z M 47.769531 45.921875 " fill-opacity="1" fill-rule="nonzero"/></g></svg>