<svg xmlns="http://www.w3.org/2000/svg" xmlns:xlink="http://www.w3.org/1999/xlink" width="1080" zoomAndPan="magnify" viewBox="0 0 810 809.999993" height="1080" preserveAspectRatio="xMidYMid meet" version="1.0"><defs><g/><clipPath id="55c1835bb9"><path d="M 555.226562 361.160156 L 613.285156 361.160156 L 613.285156 406.996094 L 555.226562 406.996094 Z M 555.226562 361.160156 " clip-rule="nonzero"/></clipPath><clipPath id="e5f867d05e"><path d="M 556 301.65625 L 611 301.65625 L 611 385 L 556 385 Z M 556 301.65625 " clip-rule="nonzero"/></clipPath><clipPath id="5802a42491"><path d="M 558.210938 396.164062 L 610.722656 396.164062 L 610.722656 437.125 L 558.210938 437.125 Z M 558.210938 396.164062 " clip-rule="nonzero"/></clipPath></defs><g fill="#ffffff" fill-opacity="1"><g transform="translate(196.928754, 461.729388)"><g><path d="M 116.953125 -25.015625 C 117.253906 -24.910156 117.515625 -24.765625 117.734375 -24.578125 C 117.953125 -24.398438 118.019531 -24.160156 117.9375 -23.859375 C 117.832031 -23.554688 117.65625 -23.253906 117.40625 -22.953125 C 117.351562 -22.898438 117.285156 -22.804688 117.203125 -22.671875 C 117.171875 -22.609375 117.109375 -22.5625 117.015625 -22.53125 C 116.921875 -22.507812 116.84375 -22.5 116.78125 -22.5 C 114.863281 -22.550781 113.640625 -22.03125 113.109375 -20.9375 C 112.585938 -19.851562 112.285156 -18.460938 112.203125 -16.765625 C 111.679688 -4.898438 111.078125 6.9375 110.390625 18.75 C 110.222656 21.363281 110.070312 23.988281 109.9375 26.625 C 109.851562 28.03125 109.644531 29.394531 109.3125 30.71875 C 109.039062 31.8125 108.300781 32.390625 107.09375 32.453125 C 106.84375 32.453125 106.59375 32.410156 106.34375 32.328125 C 106.09375 32.242188 105.882812 32.035156 105.71875 31.703125 C 104.726562 29.671875 104.675781 20.203125 105.5625 3.296875 C 106.332031 -11.585938 105.863281 -19.566406 104.15625 -20.640625 C 103 -21.378906 100.191406 -21.597656 95.734375 -21.296875 L 20.6875 -15.96875 C 20.269531 -15.945312 19.8125 -15.9375 19.3125 -15.9375 C 19.257812 -15.9375 19.207031 -15.9375 19.15625 -15.9375 C 17.582031 -16.019531 15.21875 -9.859375 12.0625 2.546875 C 8.914062 14.960938 6.835938 23.992188 5.828125 29.640625 C 4.828125 35.285156 3.269531 38.460938 1.15625 39.171875 C 0.851562 39.285156 0.550781 39.375 0.25 39.4375 C -0.0507812 39.507812 -0.382812 39.476562 -0.75 39.34375 C -1.15625 39.175781 -1.429688 38.925781 -1.578125 38.59375 C -1.734375 38.269531 -1.8125 37.957031 -1.8125 37.65625 C -1.8125 37.457031 -1.8125 37.265625 -1.8125 37.078125 C -1.757812 35.148438 -1.566406 33.25 -1.234375 31.375 C 1.265625 17.800781 4.71875 4.5625 9.125 -8.34375 C 9.257812 -8.75 9.410156 -9.203125 9.578125 -9.703125 C 9.960938 -10.828125 10.304688 -11.96875 10.609375 -13.125 C 10.960938 -14.476562 10.425781 -15.125 9 -15.0625 C 6.1875 -14.925781 3.421875 -14.75 0.703125 -14.53125 C 0.535156 -14.5 0.359375 -14.472656 0.171875 -14.453125 C -1.898438 -14.316406 -3.992188 -14.164062 -6.109375 -14 C -10.046875 -13.664062 -13.984375 -13.375 -17.921875 -13.125 C -17.972656 -13.125 -18.023438 -13.125 -18.078125 -13.125 C -20.441406 -12.820312 -22.835938 -12.921875 -25.265625 -13.421875 C -25.515625 -13.472656 -25.753906 -13.570312 -25.984375 -13.71875 C -26.222656 -13.875 -26.328125 -14.101562 -26.296875 -14.40625 C -26.265625 -14.957031 -26.070312 -15.382812 -25.71875 -15.6875 C -25.363281 -15.988281 -24.972656 -16.179688 -24.546875 -16.265625 C -24.117188 -16.347656 -23.679688 -16.390625 -23.234375 -16.390625 C -23.078125 -16.390625 -22.925781 -16.390625 -22.78125 -16.390625 C -19.15625 -16.691406 -15.5 -16.976562 -11.8125 -17.25 C -4.976562 -17.78125 1.890625 -18.238281 8.796875 -18.625 C 11.578125 -18.78125 13.429688 -20.140625 14.359375 -22.703125 C 22.097656 -43.921875 31.195312 -64.453125 41.65625 -84.296875 C 45.0625 -90.796875 48.734375 -97.164062 52.671875 -103.40625 C 56.609375 -109.65625 60.832031 -115.628906 65.34375 -121.328125 C 69.3125 -126.335938 73.691406 -130.9375 78.484375 -135.125 C 81.117188 -137.40625 84.101562 -139.234375 87.4375 -140.609375 C 89.144531 -141.296875 90.960938 -141.664062 92.890625 -141.71875 C 96.410156 -141.800781 99.421875 -140.398438 101.921875 -137.515625 C 104.015625 -135.066406 105.613281 -132.382812 106.71875 -129.46875 C 108.78125 -123.957031 110.210938 -118.351562 111.015625 -112.65625 C 112.242188 -103.875 112.984375 -95.066406 113.234375 -86.234375 C 113.484375 -77.097656 113.5625 -67.960938 113.46875 -58.828125 C 113.375 -49.691406 113.242188 -40.582031 113.078125 -31.5 C 113.078125 -31.300781 113.0625 -31.109375 113.03125 -30.921875 C 113 -30.503906 112.972656 -30.09375 112.953125 -29.6875 C 112.835938 -28.332031 112.90625 -27.050781 113.15625 -25.84375 C 113.570312 -25.539062 113.976562 -25.359375 114.375 -25.296875 C 114.769531 -25.242188 115.148438 -25.234375 115.515625 -25.265625 C 116.003906 -25.296875 116.484375 -25.210938 116.953125 -25.015625 Z M 106.265625 -39.671875 C 106.316406 -41.296875 106.34375 -42.921875 106.34375 -44.546875 C 106.34375 -52.859375 106.296875 -61.175781 106.203125 -69.5 C 106.109375 -77.820312 105.828125 -86.15625 105.359375 -94.5 C 104.910156 -102.5625 103.929688 -110.625 102.421875 -118.6875 C 101.703125 -122.488281 100.5625 -126.234375 99 -129.921875 C 98.144531 -131.929688 96.972656 -133.734375 95.484375 -135.328125 C 93.453125 -137.554688 91.140625 -138.203125 88.546875 -137.265625 C 86.429688 -136.492188 84.535156 -135.363281 82.859375 -133.875 C 79.742188 -131.125 76.828125 -128.113281 74.109375 -124.84375 C 69.972656 -119.9375 66.148438 -114.785156 62.640625 -109.390625 C 59.140625 -104.003906 55.847656 -98.429688 52.765625 -92.671875 C 46.953125 -81.859375 41.546875 -70.773438 36.546875 -59.421875 C 31.554688 -48.066406 26.914062 -36.515625 22.625 -24.765625 C 22.539062 -24.578125 22.457031 -24.398438 22.375 -24.234375 C 22.15625 -23.734375 22.003906 -23.09375 21.921875 -22.3125 C 21.835938 -21.53125 22.332031 -21.164062 23.40625 -21.21875 C 72.34375 -24 98.984375 -25.484375 103.328125 -25.671875 C 104.535156 -25.734375 105.328125 -25.941406 105.703125 -26.296875 C 106.078125 -26.648438 106.273438 -27.476562 106.296875 -28.78125 C 106.328125 -31.71875 106.316406 -34.675781 106.265625 -37.65625 C 106.265625 -38.3125 106.265625 -38.984375 106.265625 -39.671875 Z M 106.265625 -39.671875 "/></g></g><g transform="translate(318.021584, 461.729388)"><g><path d="M 20.265625 -47.921875 C 20.628906 -47.867188 20.867188 -47.613281 20.984375 -47.15625 C 21.109375 -46.707031 21.109375 -46.234375 20.984375 -45.734375 C 20.867188 -45.242188 20.628906 -45 20.265625 -45 L 6.9375 -45.125 L 6.9375 -44.75 C 6.882812 -42.789062 6.757812 -40.453125 6.5625 -37.734375 C 6.257812 -31.984375 6.109375 -26.148438 6.109375 -20.234375 C 6.109375 -18.222656 6.242188 -15.445312 6.515625 -11.90625 C 6.796875 -8.375 7.363281 -5.21875 8.21875 -2.4375 C 8.269531 -2.238281 8.445312 -1.894531 8.75 -1.40625 C 9.101562 -0.800781 9.445312 -0.117188 9.78125 0.640625 C 10.113281 1.398438 10.265625 2.019531 10.234375 2.5 C 10.210938 2.976562 9.84375 3.125 9.125 2.9375 C 6.757812 2.164062 4.957031 0.28125 3.71875 -2.71875 C 2.476562 -5.71875 1.59375 -9.21875 1.0625 -13.21875 C 0.539062 -17.226562 0.265625 -21.140625 0.234375 -24.953125 C 0.210938 -28.765625 0.257812 -31.851562 0.375 -34.21875 C 0.457031 -35.84375 0.523438 -37.46875 0.578125 -39.09375 C 0.628906 -41.15625 0.6875 -43.191406 0.75 -45.203125 L -9.328125 -45.375 C -10.179688 -45.375 -10.671875 -45.535156 -10.796875 -45.859375 C -10.921875 -46.191406 -10.832031 -46.53125 -10.53125 -46.875 C -10.226562 -47.21875 -9.828125 -47.414062 -9.328125 -47.46875 L 0.828125 -47.640625 L 1.484375 -57.390625 C 1.597656 -58.953125 1.722656 -60.546875 1.859375 -62.171875 C 1.859375 -63.023438 1.882812 -63.878906 1.9375 -64.734375 C 1.9375 -65.992188 2.238281 -67.175781 2.84375 -68.28125 C 3.5625 -69.238281 4.441406 -69.597656 5.484375 -69.359375 C 6.398438 -69.054688 6.910156 -68.421875 7.015625 -67.453125 C 7.128906 -65.890625 7.1875 -64.304688 7.1875 -62.703125 C 7.1875 -61.796875 7.1875 -60.890625 7.1875 -59.984375 C 7.1875 -58.960938 7.1875 -57.941406 7.1875 -56.921875 L 6.9375 -47.71875 Z M 20.265625 -47.921875 "/></g></g><g transform="translate(333.008524, 461.729388)"><g><path d="M 22.703125 -111.953125 C 26.035156 -111.515625 28.925781 -109.160156 31.375 -104.890625 C 33.820312 -100.628906 35.484375 -95.125 36.359375 -88.375 C 37.242188 -81.632812 36.957031 -74.34375 35.5 -66.5 C 34.039062 -58.65625 31.070312 -50.9375 26.59375 -43.34375 C 22.125 -35.75 15.804688 -28.925781 7.640625 -22.875 C 7.890625 -19.707031 8.367188 -16.582031 9.078125 -13.5 C 9.796875 -10.414062 10.859375 -7.96875 12.265625 -6.15625 C 13.523438 -4.695312 15.019531 -4.238281 16.75 -4.78125 C 18.488281 -5.332031 20.234375 -6.484375 21.984375 -8.234375 C 23.734375 -9.984375 25.320312 -11.898438 26.75 -13.984375 C 28.175781 -16.078125 29.222656 -17.910156 29.890625 -19.484375 C 30.441406 -20.640625 30.984375 -21.21875 31.515625 -21.21875 C 32.054688 -21.21875 32.203125 -20.640625 31.953125 -19.484375 C 30.992188 -16.703125 29.816406 -14.023438 28.421875 -11.453125 C 27.035156 -8.878906 25.226562 -6.5625 23 -4.5 C 21.289062 -2.875 19.253906 -1.816406 16.890625 -1.328125 C 13.140625 -0.773438 10.09375 -1.769531 7.75 -4.3125 C 5.414062 -6.851562 3.6875 -10.492188 2.5625 -15.234375 C 1.8125 -18.203125 1.300781 -22.640625 1.03125 -28.546875 C 0.757812 -34.453125 0.757812 -41.09375 1.03125 -48.46875 C 1.300781 -55.84375 1.925781 -63.3125 2.90625 -70.875 C 3.882812 -78.445312 5.21875 -85.394531 6.90625 -91.71875 C 8.601562 -98.050781 10.75 -103.082031 13.34375 -106.8125 C 15.945312 -110.539062 19.066406 -112.253906 22.703125 -111.953125 Z M 7.71875 -27.859375 C 14.988281 -34.578125 20.4375 -41.671875 24.0625 -49.140625 C 27.695312 -56.617188 29.992188 -63.945312 30.953125 -71.125 C 31.921875 -78.3125 32 -84.796875 31.1875 -90.578125 C 30.375 -96.359375 29.109375 -100.898438 27.390625 -104.203125 C 25.671875 -107.503906 23.984375 -109.003906 22.328125 -108.703125 C 20.265625 -108.085938 18.445312 -105.960938 16.875 -102.328125 C 15.3125 -98.703125 13.984375 -94.113281 12.890625 -88.5625 C 11.804688 -83.019531 10.898438 -77.097656 10.171875 -70.796875 C 9.441406 -64.492188 8.878906 -58.390625 8.484375 -52.484375 C 8.085938 -46.585938 7.832031 -41.441406 7.71875 -37.046875 C 7.613281 -32.660156 7.613281 -29.597656 7.71875 -27.859375 Z M 7.71875 -27.859375 "/></g></g><g transform="translate(362.363111, 461.729388)"><g><path d="M 61.015625 -23.859375 C 61.515625 -24.523438 62.035156 -25.007812 62.578125 -25.3125 C 63.128906 -25.613281 63.457031 -25.613281 63.5625 -25.3125 C 63.675781 -25.007812 63.378906 -24.28125 62.671875 -23.125 C 61.046875 -20.695312 58.65625 -18.394531 55.5 -16.21875 C 52.351562 -14.050781 48.875 -12.195312 45.0625 -10.65625 C 41.25 -9.113281 37.523438 -8.09375 33.890625 -7.59375 C 30.253906 -7.101562 27.175781 -7.34375 24.65625 -8.3125 C 22.144531 -9.289062 20.585938 -11.195312 19.984375 -14.03125 C 17.859375 -10.59375 15.34375 -7.90625 12.4375 -5.96875 C 9.539062 -4.03125 6.785156 -3.210938 4.171875 -3.515625 C 1.203125 -3.921875 -0.773438 -5.03125 -1.765625 -6.84375 C -2.765625 -8.664062 -3.097656 -10.757812 -2.765625 -13.125 C -2.429688 -15.488281 -1.71875 -17.734375 -0.625 -19.859375 C 0.207031 -21.484375 1.378906 -22.992188 2.890625 -24.390625 C 4.398438 -25.796875 5.984375 -26.882812 7.640625 -27.65625 C 9.703125 -28.707031 11.769531 -29.179688 13.84375 -29.078125 C 15.925781 -28.984375 18.148438 -28.304688 20.515625 -27.046875 C 20.515625 -27.046875 20.539062 -27.097656 20.59375 -27.203125 C 20.59375 -27.453125 20.640625 -27.738281 20.734375 -28.0625 C 20.835938 -28.394531 21.039062 -28.6875 21.34375 -28.9375 C 21.757812 -29.238281 22.289062 -29.476562 22.9375 -29.65625 C 23.582031 -29.84375 24.207031 -29.878906 24.8125 -29.765625 C 25.769531 -29.566406 26.363281 -29.078125 26.59375 -28.296875 C 26.832031 -27.515625 26.875 -26.65625 26.71875 -25.71875 C 26.570312 -24.78125 26.414062 -23.984375 26.25 -23.328125 C 26.195312 -23.191406 26.171875 -23.066406 26.171875 -22.953125 C 25.179688 -18.960938 25.539062 -16.160156 27.25 -14.546875 C 28.957031 -12.941406 31.425781 -12.203125 34.65625 -12.328125 C 37.882812 -12.453125 41.316406 -13.128906 44.953125 -14.359375 C 48.585938 -15.597656 51.890625 -17.078125 54.859375 -18.796875 C 57.835938 -20.523438 59.890625 -22.210938 61.015625 -23.859375 Z M 5.359375 -8.875 C 6.628906 -8.019531 7.992188 -8.109375 9.453125 -9.140625 C 10.910156 -10.171875 12.332031 -11.65625 13.71875 -13.59375 C 15.113281 -15.539062 16.265625 -17.476562 17.171875 -19.40625 C 18.078125 -21.332031 18.585938 -22.789062 18.703125 -23.78125 C 15.804688 -25.34375 13.328125 -25.625 11.265625 -24.625 C 9.203125 -23.625 7.59375 -22.019531 6.4375 -19.8125 C 5.28125 -17.613281 4.613281 -15.429688 4.4375 -13.265625 C 4.257812 -11.109375 4.566406 -9.644531 5.359375 -8.875 Z M 5.359375 -8.875 "/></g></g><g transform="translate(421.402575, 461.729388)"><g><path d="M 60.84375 -25.015625 C 62.0625 -25.566406 62.765625 -25.664062 62.953125 -25.3125 C 63.171875 -24.59375 62.523438 -23.300781 61.015625 -21.4375 C 59.503906 -19.582031 57.453125 -17.691406 54.859375 -15.765625 C 48.617188 -11.421875 43.363281 -8.820312 39.09375 -7.96875 C 34.832031 -7.113281 31.351562 -7.378906 28.65625 -8.765625 C 25.957031 -10.160156 23.945312 -12.066406 22.625 -14.484375 C 21.050781 -17.210938 20.070312 -19.910156 19.6875 -22.578125 C 19.164062 -25.492188 18.453125 -27.144531 17.546875 -27.53125 C 16.640625 -27.914062 15.671875 -27.503906 14.640625 -26.296875 C 13.609375 -25.085938 12.601562 -23.5 11.625 -21.53125 C 10.644531 -19.5625 9.835938 -17.640625 9.203125 -15.765625 C 8.566406 -13.898438 8.222656 -12.484375 8.171875 -11.515625 C 7.984375 -10.960938 7.804688 -10.441406 7.640625 -9.953125 C 7.390625 -9.179688 7.113281 -8.421875 6.8125 -7.671875 C 6.007812 -5.609375 4.617188 -4.851562 2.640625 -5.40625 C 1.535156 -5.601562 0.90625 -6.28125 0.75 -7.4375 C 0.664062 -8.207031 0.625 -9.015625 0.625 -9.859375 C 0.625 -10.523438 0.59375 -11.226562 0.53125 -11.96875 C 0.425781 -16.925781 0.304688 -21.921875 0.171875 -26.953125 C 0.171875 -27.554688 0.457031 -27.972656 1.03125 -28.203125 C 1.613281 -28.441406 2.28125 -28.546875 3.03125 -28.515625 C 3.789062 -28.492188 4.457031 -28.378906 5.03125 -28.171875 C 5.613281 -27.960938 5.929688 -27.664062 5.984375 -27.28125 C 6.117188 -26.457031 6.1875 -25.742188 6.1875 -25.140625 C 6.1875 -24.285156 6.238281 -23.671875 6.34375 -23.296875 C 6.457031 -22.929688 6.710938 -22.945312 7.109375 -23.34375 C 7.515625 -23.738281 8.203125 -24.570312 9.171875 -25.84375 C 10.679688 -28.257812 12.59375 -30.320312 14.90625 -32.03125 C 15.925781 -32.800781 17.128906 -33.359375 18.515625 -33.703125 C 19.898438 -34.046875 21.242188 -34.097656 22.546875 -33.859375 C 23.921875 -33.492188 25 -32.707031 25.78125 -31.5 C 26.5625 -30.289062 27.148438 -28.90625 27.546875 -27.34375 C 27.953125 -25.789062 28.25 -24.351562 28.4375 -23.03125 C 28.5 -22.675781 28.554688 -22.375 28.609375 -22.125 C 28.910156 -20.363281 29.316406 -18.757812 29.828125 -17.3125 C 30.335938 -15.875 31.171875 -14.738281 32.328125 -13.90625 C 33.484375 -13.082031 35.175781 -12.769531 37.40625 -12.96875 C 42.25 -13.320312 46.09375 -14.332031 48.9375 -16 C 51.789062 -17.664062 54.191406 -19.429688 56.140625 -21.296875 C 56.441406 -21.546875 56.703125 -21.796875 56.921875 -22.046875 C 57.367188 -22.347656 57.742188 -22.648438 58.046875 -22.953125 C 58.753906 -23.722656 59.6875 -24.410156 60.84375 -25.015625 Z M 60.84375 -25.015625 "/></g></g><g transform="translate(478.873158, 461.729388)"><g><path d="M 20.265625 -47.921875 C 20.628906 -47.867188 20.867188 -47.613281 20.984375 -47.15625 C 21.109375 -46.707031 21.109375 -46.234375 20.984375 -45.734375 C 20.867188 -45.242188 20.628906 -45 20.265625 -45 L 6.9375 -45.125 L 6.9375 -44.75 C 6.882812 -42.789062 6.757812 -40.453125 6.5625 -37.734375 C 6.257812 -31.984375 6.109375 -26.148438 6.109375 -20.234375 C 6.109375 -18.222656 6.242188 -15.445312 6.515625 -11.90625 C 6.796875 -8.375 7.363281 -5.21875 8.21875 -2.4375 C 8.269531 -2.238281 8.445312 -1.894531 8.75 -1.40625 C 9.101562 -0.800781 9.445312 -0.117188 9.78125 0.640625 C 10.113281 1.398438 10.265625 2.019531 10.234375 2.5 C 10.210938 2.976562 9.84375 3.125 9.125 2.9375 C 6.757812 2.164062 4.957031 0.28125 3.71875 -2.71875 C 2.476562 -5.71875 1.59375 -9.21875 1.0625 -13.21875 C 0.539062 -17.226562 0.265625 -21.140625 0.234375 -24.953125 C 0.210938 -28.765625 0.257812 -31.851562 0.375 -34.21875 C 0.457031 -35.84375 0.523438 -37.46875 0.578125 -39.09375 C 0.628906 -41.15625 0.6875 -43.191406 0.75 -45.203125 L -9.328125 -45.375 C -10.179688 -45.375 -10.671875 -45.535156 -10.796875 -45.859375 C -10.921875 -46.191406 -10.832031 -46.53125 -10.53125 -46.875 C -10.226562 -47.21875 -9.828125 -47.414062 -9.328125 -47.46875 L 0.828125 -47.640625 L 1.484375 -57.390625 C 1.597656 -58.953125 1.722656 -60.546875 1.859375 -62.171875 C 1.859375 -63.023438 1.882812 -63.878906 1.9375 -64.734375 C 1.9375 -65.992188 2.238281 -67.175781 2.84375 -68.28125 C 3.5625 -69.238281 4.441406 -69.597656 5.484375 -69.359375 C 6.398438 -69.054688 6.910156 -68.421875 7.015625 -67.453125 C 7.128906 -65.890625 7.1875 -64.304688 7.1875 -62.703125 C 7.1875 -61.796875 7.1875 -60.890625 7.1875 -59.984375 C 7.1875 -58.960938 7.1875 -57.941406 7.1875 -56.921875 L 6.9375 -47.71875 Z M 20.265625 -47.921875 "/></g></g><g transform="translate(493.860098, 461.729388)"><g><path d="M 4 -3.671875 C 3.445312 -3.617188 2.84375 -4.003906 2.1875 -4.828125 C 1.53125 -5.648438 0.953125 -7.070312 0.453125 -9.09375 C -0.0351562 -11.125 -0.210938 -13.925781 -0.078125 -17.5 C -0.078125 -17.863281 -0.078125 -18.316406 -0.078125 -18.859375 C -0.078125 -20.242188 -0.0195312 -21.863281 0.09375 -23.71875 C 0.21875 -25.570312 0.488281 -27.234375 0.90625 -28.703125 C 1.320312 -30.179688 1.957031 -31.070312 2.8125 -31.375 C 5.363281 -32.0625 6.753906 -31.15625 6.984375 -28.65625 C 6.984375 -27.882812 6.953125 -27.097656 6.890625 -26.296875 C 6.835938 -25.941406 6.8125 -25.554688 6.8125 -25.140625 C 6.757812 -23.984375 6.703125 -22.851562 6.640625 -21.75 C 6.640625 -20.789062 6.597656 -19.859375 6.515625 -18.953125 C 6.515625 -18.347656 6.515625 -17.46875 6.515625 -16.3125 C 6.597656 -14.6875 6.617188 -12.914062 6.578125 -11 C 6.535156 -9.082031 6.320312 -7.414062 5.9375 -6 C 5.550781 -4.582031 4.90625 -3.804688 4 -3.671875 Z M 6.4375 -39.921875 C 6.132812 -39.617188 5.710938 -39.425781 5.171875 -39.34375 C 4.640625 -39.257812 4.222656 -39.300781 3.921875 -39.46875 C 3.617188 -39.769531 3.414062 -40.101562 3.3125 -40.46875 C 3.21875 -40.84375 3.171875 -41.289062 3.171875 -41.8125 C 3.234375 -41.957031 3.265625 -42.082031 3.265625 -42.1875 C 3.316406 -42.6875 3.441406 -43.171875 3.640625 -43.640625 C 4.179688 -45.035156 5.296875 -45.640625 6.984375 -45.453125 C 7.585938 -45.398438 8.039062 -45.160156 8.34375 -44.734375 C 8.644531 -44.304688 8.738281 -43.832031 8.625 -43.3125 C 8.21875 -42.007812 7.488281 -40.878906 6.4375 -39.921875 Z M 6.4375 -39.921875 "/></g></g><g transform="translate(505.089982, 461.729388)"><g><path d="M 56.140625 -25.84375 C 56.554688 -25.726562 56.550781 -25.140625 56.125 -24.078125 C 55.695312 -23.023438 54.820312 -21.671875 53.5 -20.015625 C 51.988281 -18.285156 49.476562 -16.328125 45.96875 -14.140625 C 42.457031 -11.953125 38.394531 -9.945312 33.78125 -8.125 C 29.175781 -6.3125 24.539062 -5.023438 19.875 -4.265625 C 15.207031 -3.515625 10.945312 -3.6875 7.09375 -4.78125 C 3.019531 -6.050781 0.679688 -8.707031 0.078125 -12.75 C -0.222656 -15.0625 -0.0703125 -17.332031 0.53125 -19.5625 C 1.28125 -21.875 2.453125 -23.910156 4.046875 -25.671875 C 5.640625 -27.429688 7.617188 -28.769531 9.984375 -29.6875 C 12.210938 -30.457031 14.523438 -30.75 16.921875 -30.5625 C 19.316406 -30.382812 21.269531 -29.664062 22.78125 -28.40625 C 23.03125 -28.207031 23.15625 -27.929688 23.15625 -27.578125 C 23.15625 -27.222656 23.101562 -26.863281 23 -26.5 C 22.695312 -25.457031 22.191406 -24.96875 21.484375 -25.03125 C 20.785156 -25.101562 19.984375 -25.375 19.078125 -25.84375 C 18.410156 -26.195312 17.6875 -26.507812 16.90625 -26.78125 C 16.125 -27.0625 15.304688 -27.148438 14.453125 -27.046875 C 12.085938 -26.679688 10.117188 -25.441406 8.546875 -23.328125 C 7.273438 -21.566406 6.410156 -19.625 5.953125 -17.5 C 5.503906 -15.382812 5.691406 -13.472656 6.515625 -11.765625 C 7.671875 -9.585938 9.703125 -8.285156 12.609375 -7.859375 C 15.515625 -7.429688 18.859375 -7.644531 22.640625 -8.5 C 26.421875 -9.351562 30.253906 -10.578125 34.140625 -12.171875 C 38.023438 -13.773438 41.582031 -15.46875 44.8125 -17.25 C 48.039062 -19.039062 50.539062 -20.691406 52.3125 -22.203125 C 54.125 -23.773438 55.179688 -24.8125 55.484375 -25.3125 C 55.671875 -25.5 55.804688 -25.632812 55.890625 -25.71875 C 55.972656 -25.800781 56.054688 -25.84375 56.140625 -25.84375 Z M 56.140625 -25.84375 "/></g></g></g><g clip-path="url(#55c1835bb9)"><path fill="#ffffff" d="M 555.761719 361.160156 C 555.761719 361.160156 555.867188 361.464844 556.035156 362.027344 C 556.078125 362.171875 556.140625 362.320312 556.199219 362.488281 C 556.257812 362.65625 556.3125 362.835938 556.386719 363.03125 C 556.464844 363.222656 556.546875 363.429688 556.632812 363.648438 C 556.714844 363.867188 556.828125 364.09375 556.925781 364.332031 C 557.136719 364.808594 557.394531 365.316406 557.6875 365.847656 C 557.757812 365.980469 557.839844 366.113281 557.921875 366.246094 C 558.003906 366.378906 558.085938 366.515625 558.167969 366.652344 C 558.257812 366.789062 558.351562 366.925781 558.441406 367.0625 C 558.488281 367.132812 558.535156 367.199219 558.582031 367.269531 C 558.628906 367.339844 558.679688 367.40625 558.730469 367.476562 C 559.121094 368.03125 559.582031 368.578125 560.085938 369.125 C 560.585938 369.671875 561.152344 370.207031 561.769531 370.726562 C 563.007812 371.769531 564.460938 372.757812 566.113281 373.683594 C 567.765625 374.613281 569.605469 375.492188 571.578125 376.359375 C 572.070312 376.578125 572.578125 376.792969 573.085938 377.011719 C 573.597656 377.222656 574.113281 377.433594 574.628906 377.648438 L 574.832031 377.734375 C 574.902344 377.765625 574.957031 377.785156 575.019531 377.808594 L 575.390625 377.949219 C 575.636719 378.042969 575.886719 378.136719 576.132812 378.230469 C 576.375 378.324219 576.648438 378.425781 576.910156 378.519531 C 577.171875 378.617188 577.4375 378.714844 577.699219 378.8125 C 579.824219 379.582031 582.050781 380.316406 584.320312 381.078125 C 586.589844 381.847656 588.90625 382.648438 591.195312 383.546875 C 593.488281 384.445312 595.75 385.460938 597.886719 386.609375 C 598.152344 386.757812 598.417969 386.90625 598.683594 387.050781 C 598.953125 387.203125 599.21875 387.355469 599.488281 387.507812 C 599.734375 387.65625 599.980469 387.808594 600.222656 387.957031 C 600.488281 388.121094 600.753906 388.289062 601 388.449219 C 601.5 388.773438 601.984375 389.109375 602.453125 389.453125 C 602.925781 389.792969 603.386719 390.144531 603.828125 390.5 C 605.601562 391.925781 607.140625 393.453125 608.402344 395 C 609.664062 396.542969 610.644531 398.097656 611.363281 399.539062 C 612.078125 400.988281 612.535156 402.308594 612.808594 403.414062 C 612.949219 403.964844 613.046875 404.460938 613.109375 404.894531 C 613.140625 405.113281 613.175781 405.308594 613.195312 405.492188 C 613.210938 405.675781 613.226562 405.84375 613.242188 405.992188 C 613.273438 406.289062 613.269531 406.523438 613.277344 406.675781 C 613.28125 406.828125 613.285156 406.910156 613.285156 406.910156 C 613.285156 406.910156 613.105469 406.648438 612.773438 406.164062 C 612.601562 405.925781 612.394531 405.632812 612.144531 405.300781 C 612.023438 405.132812 611.882812 404.960938 611.734375 404.773438 C 611.59375 404.589844 611.429688 404.398438 611.261719 404.195312 C 610.59375 403.390625 609.730469 402.480469 608.691406 401.535156 C 607.648438 400.589844 606.417969 399.617188 605.015625 398.675781 C 603.609375 397.734375 602.03125 396.820312 600.308594 395.96875 C 599.875 395.757812 599.441406 395.542969 598.992188 395.339844 C 598.765625 395.238281 598.542969 395.136719 598.3125 395.035156 C 598.085938 394.933594 597.855469 394.835938 597.625 394.738281 C 597.390625 394.632812 597.167969 394.546875 596.941406 394.457031 C 596.691406 394.355469 596.441406 394.253906 596.191406 394.152344 C 595.953125 394.0625 595.714844 393.972656 595.476562 393.886719 C 595.230469 393.789062 594.984375 393.695312 594.734375 393.601562 C 592.734375 392.863281 590.613281 392.171875 588.40625 391.46875 C 586.203125 390.765625 583.910156 390.054688 581.585938 389.269531 C 579.261719 388.480469 576.90625 387.613281 574.601562 386.597656 C 574.316406 386.46875 574.027344 386.335938 573.742188 386.207031 L 573.097656 385.914062 L 572.878906 385.804688 C 572.585938 385.660156 572.292969 385.515625 572.003906 385.371094 C 571.859375 385.296875 571.714844 385.226562 571.566406 385.152344 C 571.496094 385.117188 571.417969 385.082031 571.355469 385.046875 L 571.160156 384.941406 C 570.628906 384.644531 570.097656 384.347656 569.570312 384.058594 C 569.046875 383.757812 568.53125 383.441406 568.019531 383.125 C 565.980469 381.859375 564.039062 380.464844 562.320312 378.929688 C 560.601562 377.398438 559.117188 375.707031 557.996094 373.964844 C 557.433594 373.09375 556.957031 372.21875 556.585938 371.351562 C 556.484375 371.140625 556.402344 370.921875 556.316406 370.707031 C 556.234375 370.492188 556.152344 370.285156 556.085938 370.070312 C 556.015625 369.863281 555.945312 369.652344 555.878906 369.449219 C 555.820312 369.242188 555.769531 369.035156 555.714844 368.835938 C 555.6875 368.738281 555.660156 368.636719 555.636719 368.539062 C 555.613281 368.4375 555.59375 368.339844 555.574219 368.242188 C 555.53125 368.046875 555.492188 367.855469 555.457031 367.667969 C 555.398438 367.285156 555.335938 366.921875 555.308594 366.570312 C 555.277344 366.21875 555.242188 365.886719 555.238281 365.566406 C 555.230469 365.246094 555.21875 364.945312 555.234375 364.65625 C 555.242188 364.511719 555.246094 364.375 555.253906 364.238281 C 555.257812 364.105469 555.265625 363.972656 555.277344 363.847656 C 555.304688 363.597656 555.332031 363.359375 555.355469 363.140625 C 555.414062 362.703125 555.480469 362.335938 555.539062 362.042969 C 555.675781 361.46875 555.761719 361.160156 555.761719 361.160156 " fill-opacity="1" fill-rule="nonzero"/></g><g clip-path="url(#e5f867d05e)"><path fill="#ffffff" d="M 569.605469 326.542969 C 569.519531 326.132812 569.449219 325.738281 569.359375 325.355469 C 569.265625 324.976562 569.1875 324.613281 569.09375 324.265625 C 569 323.917969 568.917969 323.585938 568.824219 323.269531 C 568.726562 322.957031 568.636719 322.65625 568.546875 322.375 C 568.183594 321.246094 567.84375 320.375 567.601562 319.796875 C 567.355469 319.21875 567.214844 318.910156 567.214844 318.910156 C 567.214844 318.910156 567.214844 318.921875 567.214844 318.941406 L 567.207031 318.910156 L 562.054688 333.539062 C 562.054688 333.539062 564.898438 331.675781 566.429688 331.921875 C 566.089844 333.785156 565.625 335.769531 565.003906 337.828125 C 564.378906 339.898438 563.605469 342.042969 562.710938 344.253906 C 561.816406 346.460938 560.804688 348.738281 559.761719 351.109375 C 558.722656 353.488281 557.648438 355.96875 556.761719 358.667969 C 556.621094 359.097656 556.484375 359.539062 556.359375 359.984375 C 556.367188 360.011719 556.378906 360.039062 556.386719 360.066406 C 556.464844 360.257812 556.546875 360.464844 556.632812 360.683594 C 556.714844 360.90625 556.828125 361.128906 556.925781 361.367188 C 557.136719 361.84375 557.394531 362.351562 557.6875 362.882812 C 557.757812 363.015625 557.839844 363.148438 557.921875 363.28125 C 558.003906 363.417969 558.085938 363.550781 558.167969 363.691406 C 558.257812 363.824219 558.351562 363.960938 558.441406 364.097656 C 558.488281 364.167969 558.535156 364.238281 558.582031 364.308594 C 558.628906 364.375 558.679688 364.445312 558.730469 364.511719 C 559.121094 365.066406 559.585938 365.613281 560.085938 366.164062 C 560.585938 366.710938 561.152344 367.242188 561.769531 367.765625 C 561.910156 367.882812 562.054688 368 562.199219 368.117188 C 562.1875 367.890625 562.179688 367.660156 562.179688 367.429688 C 562.191406 365.371094 562.667969 363.121094 563.382812 360.789062 C 564.097656 358.453125 565.011719 356.039062 565.894531 353.59375 C 566.78125 351.144531 567.648438 348.660156 568.335938 346.179688 C 569.027344 343.703125 569.554688 341.234375 569.867188 338.867188 C 570.1875 336.496094 570.28125 334.226562 570.214844 332.148438 C 570.144531 330.070312 569.914062 328.183594 569.605469 326.542969 Z M 576.578125 327.644531 L 578.6875 327.644531 C 580.0625 327.644531 581.179688 328.765625 581.179688 330.148438 L 579.636719 376.53125 C 581.164062 377.0625 582.730469 377.582031 584.320312 378.117188 C 585.015625 378.351562 585.71875 378.59375 586.421875 378.835938 L 584.804688 330.148438 C 584.804688 328.765625 585.921875 327.644531 587.296875 327.644531 L 589.40625 327.644531 L 582.992188 301.65625 Z M 610.335938 362.894531 C 610.195312 362.160156 610.023438 361.441406 609.839844 360.734375 C 609.652344 360.03125 609.445312 359.339844 609.222656 358.667969 C 608.335938 355.96875 607.261719 353.488281 606.222656 351.109375 C 605.183594 348.738281 604.167969 346.460938 603.273438 344.253906 C 602.378906 342.042969 601.605469 339.898438 600.980469 337.828125 C 600.359375 335.769531 599.894531 333.785156 599.554688 331.921875 C 601.085938 331.675781 603.929688 333.539062 603.929688 333.539062 L 598.777344 318.910156 L 598.769531 318.941406 C 598.769531 318.921875 598.769531 318.910156 598.769531 318.910156 C 598.769531 318.910156 598.628906 319.21875 598.382812 319.796875 C 598.140625 320.375 597.800781 321.246094 597.4375 322.375 C 597.347656 322.65625 597.257812 322.957031 597.160156 323.269531 C 597.066406 323.585938 596.984375 323.917969 596.890625 324.265625 C 596.796875 324.613281 596.71875 324.976562 596.625 325.355469 C 596.535156 325.738281 596.464844 326.132812 596.378906 326.542969 C 596.070312 328.183594 595.839844 330.070312 595.769531 332.148438 C 595.703125 334.226562 595.796875 336.496094 596.117188 338.867188 C 596.429688 341.234375 596.957031 343.703125 597.648438 346.179688 C 598.339844 348.660156 599.203125 351.144531 600.089844 353.59375 C 600.972656 356.039062 601.890625 358.453125 602.601562 360.789062 C 603.316406 363.121094 603.792969 365.371094 603.804688 367.429688 C 603.804688 368.460938 603.707031 369.449219 603.480469 370.402344 L 603.460938 370.492188 L 603.449219 370.539062 L 603.445312 370.558594 C 603.441406 370.574219 603.464844 370.496094 603.449219 370.542969 L 603.390625 370.773438 L 603.332031 370.996094 L 603.285156 371.160156 L 603.242188 371.328125 L 603.183594 371.511719 C 603.148438 371.636719 603.109375 371.757812 603.066406 371.878906 C 602.902344 372.367188 602.726562 372.847656 602.519531 373.316406 C 601.707031 375.191406 600.578125 376.894531 599.273438 378.316406 C 598.625 379.03125 597.933594 379.679688 597.214844 380.25 C 597.125 380.324219 597.035156 380.394531 596.941406 380.464844 C 596.851562 380.53125 596.761719 380.605469 596.671875 380.667969 L 596.464844 380.820312 L 596.429688 380.84375 C 596.417969 380.851562 596.472656 380.824219 596.441406 380.84375 L 596.421875 380.855469 C 596.3125 380.929688 596.203125 381 596.097656 381.070312 C 596.007812 381.132812 595.921875 381.191406 595.832031 381.25 C 595.75 381.308594 595.652344 381.367188 595.558594 381.425781 C 595.375 381.546875 595.183594 381.65625 594.996094 381.765625 C 594.851562 381.847656 594.707031 381.929688 594.5625 382.007812 C 595.695312 382.519531 596.808594 383.066406 597.886719 383.648438 C 598.152344 383.792969 598.417969 383.941406 598.683594 384.089844 C 598.953125 384.242188 599.21875 384.394531 599.488281 384.546875 C 599.582031 384.601562 599.671875 384.660156 599.765625 384.714844 C 599.824219 384.6875 599.878906 384.65625 599.933594 384.628906 C 601.015625 384.070312 602.085938 383.386719 603.105469 382.578125 C 605.152344 380.960938 607.007812 378.832031 608.398438 376.277344 C 608.742188 375.636719 609.066406 374.976562 609.347656 374.285156 C 609.417969 374.113281 609.488281 373.941406 609.550781 373.765625 L 609.652344 373.503906 L 609.75 373.21875 L 609.851562 372.929688 L 610 372.46875 L 610.019531 372.398438 L 610.03125 372.363281 L 610.050781 372.289062 L 610.089844 372.148438 C 610.304688 371.394531 610.453125 370.617188 610.574219 369.835938 C 610.597656 369.640625 610.625 369.445312 610.648438 369.25 C 610.664062 369.050781 610.683594 368.855469 610.699219 368.660156 C 610.71875 368.460938 610.726562 368.265625 610.734375 368.070312 C 610.742188 367.871094 610.753906 367.675781 610.753906 367.480469 C 610.78125 365.910156 610.609375 364.371094 610.335938 362.894531 " fill-opacity="1" fill-rule="nonzero"/></g><path fill="#ffffff" d="M 558.710938 378.621094 C 558.710938 378.621094 558.789062 378.894531 558.914062 379.40625 C 558.945312 379.535156 558.988281 379.675781 559.03125 379.828125 C 559.074219 379.980469 559.121094 380.148438 559.171875 380.328125 C 559.222656 380.507812 559.292969 380.699219 559.355469 380.898438 C 559.417969 381.101562 559.484375 381.316406 559.570312 381.539062 C 559.730469 381.988281 559.917969 382.472656 560.144531 382.984375 C 560.378906 383.492188 560.632812 384.03125 560.949219 384.578125 C 561.566406 385.675781 562.378906 386.808594 563.402344 387.886719 C 564.425781 388.964844 565.671875 389.980469 567.097656 390.917969 C 568.53125 391.851562 570.152344 392.695312 571.90625 393.480469 C 575.417969 395.042969 579.445312 396.339844 583.570312 397.671875 C 585.628906 398.34375 587.71875 399.019531 589.78125 399.757812 C 591.847656 400.492188 593.886719 401.292969 595.84375 402.207031 C 596.085938 402.324219 596.332031 402.4375 596.574219 402.554688 C 596.8125 402.679688 597.054688 402.796875 597.292969 402.917969 C 597.53125 403.042969 597.769531 403.167969 598.003906 403.292969 C 598.238281 403.421875 598.46875 403.550781 598.703125 403.679688 C 598.933594 403.816406 599.160156 403.949219 599.390625 404.082031 C 599.613281 404.222656 599.839844 404.363281 600.0625 404.503906 C 600.296875 404.65625 600.527344 404.8125 600.757812 404.960938 C 600.953125 405.105469 601.144531 405.246094 601.335938 405.382812 C 601.433594 405.453125 601.527344 405.523438 601.625 405.59375 C 601.730469 405.675781 601.835938 405.757812 601.941406 405.839844 C 602.148438 406.003906 602.351562 406.164062 602.558594 406.328125 C 602.746094 406.492188 602.933594 406.652344 603.121094 406.8125 C 603.210938 406.894531 603.304688 406.976562 603.394531 407.054688 C 603.484375 407.136719 603.570312 407.222656 603.660156 407.304688 C 603.832031 407.472656 604.003906 407.636719 604.175781 407.800781 C 604.347656 407.960938 604.503906 408.136719 604.664062 408.304688 C 604.824219 408.472656 604.984375 408.636719 605.132812 408.804688 C 605.28125 408.976562 605.429688 409.148438 605.574219 409.316406 C 606.726562 410.664062 607.621094 412.011719 608.304688 413.25 C 608.640625 413.871094 608.941406 414.457031 609.183594 415.015625 C 609.3125 415.289062 609.421875 415.558594 609.527344 415.816406 C 609.628906 416.074219 609.730469 416.316406 609.8125 416.554688 C 609.894531 416.789062 609.972656 417.015625 610.046875 417.222656 C 610.121094 417.433594 610.171875 417.636719 610.230469 417.820312 C 610.339844 418.191406 610.429688 418.503906 610.484375 418.765625 C 610.609375 419.285156 610.664062 419.5625 610.664062 419.5625 C 610.664062 419.5625 610.480469 419.34375 610.160156 418.929688 C 609.835938 418.515625 609.351562 417.921875 608.726562 417.195312 C 608.578125 417.011719 608.394531 416.832031 608.226562 416.632812 C 608.050781 416.4375 607.871094 416.230469 607.667969 416.027344 C 607.570312 415.925781 607.46875 415.820312 607.367188 415.714844 C 607.265625 415.609375 607.164062 415.5 607.054688 415.390625 C 606.832031 415.179688 606.613281 414.953125 606.378906 414.730469 C 605.445312 413.832031 604.347656 412.890625 603.09375 411.980469 C 602.9375 411.867188 602.78125 411.753906 602.621094 411.640625 C 602.460938 411.527344 602.292969 411.421875 602.128906 411.308594 C 601.960938 411.199219 601.796875 411.082031 601.625 410.976562 C 601.453125 410.871094 601.277344 410.761719 601.105469 410.65625 C 600.929688 410.542969 600.75 410.441406 600.570312 410.339844 C 600.390625 410.234375 600.210938 410.132812 600.027344 410.027344 C 599.847656 409.933594 599.667969 409.84375 599.488281 409.75 C 599.402344 409.699219 599.3125 409.652344 599.222656 409.605469 C 599.117188 409.554688 599.011719 409.503906 598.90625 409.449219 C 598.695312 409.347656 598.480469 409.242188 598.265625 409.132812 L 598.246094 409.125 C 598.324219 409.171875 598.257812 409.132812 598.269531 409.140625 L 598.230469 409.125 L 598.15625 409.089844 L 598.007812 409.023438 C 597.90625 408.976562 597.804688 408.933594 597.707031 408.886719 C 597.5 408.800781 597.292969 408.714844 597.085938 408.625 C 596.875 408.539062 596.664062 408.457031 596.453125 408.367188 C 596.023438 408.203125 595.585938 408.039062 595.136719 407.875 C 594.691406 407.714844 594.234375 407.558594 593.769531 407.398438 C 591.914062 406.773438 589.933594 406.1875 587.898438 405.578125 C 585.859375 404.96875 583.761719 404.347656 581.648438 403.664062 C 579.539062 402.976562 577.421875 402.230469 575.351562 401.375 C 573.277344 400.523438 571.253906 399.550781 569.359375 398.433594 C 567.464844 397.3125 565.699219 396.042969 564.179688 394.621094 C 562.660156 393.195312 561.398438 391.628906 560.488281 390.03125 C 560.367188 389.835938 560.265625 389.628906 560.160156 389.433594 C 560.105469 389.335938 560.054688 389.234375 560.003906 389.136719 C 559.953125 389.039062 559.910156 388.9375 559.863281 388.839844 C 559.769531 388.640625 559.675781 388.445312 559.59375 388.25 C 559.515625 388.050781 559.4375 387.855469 559.359375 387.664062 C 559.070312 386.886719 558.839844 386.136719 558.691406 385.421875 C 558.65625 385.246094 558.609375 385.074219 558.585938 384.898438 C 558.554688 384.726562 558.527344 384.554688 558.5 384.386719 C 558.488281 384.304688 558.476562 384.222656 558.464844 384.140625 C 558.453125 384.058594 558.445312 383.976562 558.4375 383.898438 C 558.421875 383.738281 558.40625 383.578125 558.390625 383.425781 C 558.371094 383.269531 558.367188 383.117188 558.359375 382.972656 C 558.351562 382.824219 558.34375 382.679688 558.335938 382.539062 C 558.335938 382.46875 558.328125 382.398438 558.328125 382.332031 C 558.328125 382.261719 558.332031 382.195312 558.332031 382.128906 C 558.332031 381.992188 558.335938 381.863281 558.335938 381.734375 C 558.335938 381.484375 558.351562 381.242188 558.367188 381.019531 C 558.382812 380.796875 558.394531 380.589844 558.417969 380.394531 C 558.464844 380.003906 558.503906 379.675781 558.554688 379.417969 C 558.648438 378.898438 558.710938 378.621094 558.710938 378.621094 " fill-opacity="1" fill-rule="nonzero"/><g clip-path="url(#5802a42491)"><path fill="#ffffff" d="M 558.710938 396.183594 C 558.710938 396.183594 558.789062 396.457031 558.914062 396.96875 C 558.945312 397.097656 558.988281 397.238281 559.03125 397.390625 C 559.074219 397.542969 559.121094 397.710938 559.171875 397.890625 C 559.222656 398.070312 559.292969 398.261719 559.355469 398.464844 C 559.417969 398.667969 559.484375 398.882812 559.570312 399.101562 C 559.730469 399.550781 559.917969 400.035156 560.144531 400.546875 C 560.378906 401.054688 560.632812 401.59375 560.949219 402.140625 C 561.566406 403.238281 562.378906 404.371094 563.402344 405.449219 C 564.425781 406.527344 565.671875 407.542969 567.097656 408.480469 C 568.53125 409.414062 570.152344 410.261719 571.90625 411.042969 C 575.417969 412.605469 579.445312 413.902344 583.570312 415.234375 C 585.628906 415.90625 587.71875 416.582031 589.78125 417.320312 C 591.847656 418.054688 593.886719 418.855469 595.84375 419.769531 C 596.085938 419.886719 596.332031 420 596.574219 420.121094 C 596.8125 420.242188 597.054688 420.363281 597.292969 420.480469 C 597.53125 420.605469 597.769531 420.730469 598.003906 420.855469 C 598.238281 420.984375 598.46875 421.117188 598.703125 421.246094 C 598.933594 421.378906 599.160156 421.511719 599.390625 421.648438 C 599.613281 421.789062 599.839844 421.925781 600.0625 422.066406 C 600.296875 422.21875 600.527344 422.375 600.757812 422.527344 C 600.953125 422.667969 601.144531 422.808594 601.335938 422.945312 C 601.433594 423.019531 601.527344 423.089844 601.625 423.15625 C 601.730469 423.238281 601.835938 423.320312 601.941406 423.402344 C 602.148438 423.566406 602.351562 423.730469 602.558594 423.890625 C 602.746094 424.054688 602.933594 424.214844 603.121094 424.378906 C 603.210938 424.457031 603.304688 424.539062 603.394531 424.617188 C 603.484375 424.699219 603.570312 424.785156 603.660156 424.867188 C 603.832031 425.035156 604.003906 425.199219 604.175781 425.363281 C 604.347656 425.523438 604.503906 425.699219 604.664062 425.867188 C 604.824219 426.035156 604.984375 426.199219 605.132812 426.371094 C 605.28125 426.539062 605.429688 426.710938 605.574219 426.878906 C 606.726562 428.226562 607.621094 429.574219 608.304688 430.8125 C 608.640625 431.433594 608.941406 432.019531 609.183594 432.578125 C 609.3125 432.851562 609.421875 433.121094 609.527344 433.378906 C 609.628906 433.636719 609.730469 433.878906 609.8125 434.117188 C 609.894531 434.351562 609.972656 434.578125 610.046875 434.785156 C 610.121094 434.996094 610.171875 435.199219 610.230469 435.382812 C 610.339844 435.753906 610.429688 436.066406 610.484375 436.332031 C 610.609375 436.847656 610.664062 437.125 610.664062 437.125 C 610.664062 437.125 610.480469 436.90625 610.160156 436.492188 C 609.835938 436.078125 609.351562 435.484375 608.726562 434.757812 C 608.578125 434.574219 608.394531 434.394531 608.226562 434.195312 C 608.050781 434 607.871094 433.792969 607.667969 433.59375 C 607.570312 433.488281 607.46875 433.386719 607.367188 433.277344 C 607.265625 433.171875 607.164062 433.0625 607.054688 432.957031 C 606.832031 432.742188 606.613281 432.515625 606.378906 432.292969 C 605.445312 431.394531 604.347656 430.453125 603.09375 429.542969 C 602.9375 429.433594 602.78125 429.316406 602.621094 429.203125 C 602.460938 429.089844 602.292969 428.984375 602.128906 428.871094 C 601.960938 428.761719 601.796875 428.644531 601.625 428.539062 C 601.453125 428.433594 601.277344 428.324219 601.105469 428.21875 C 600.929688 428.105469 600.75 428.003906 600.570312 427.902344 C 600.390625 427.796875 600.210938 427.695312 600.027344 427.589844 C 599.847656 427.5 599.667969 427.40625 599.488281 427.3125 C 599.402344 427.265625 599.3125 427.214844 599.222656 427.167969 C 599.117188 427.117188 599.011719 427.066406 598.90625 427.011719 C 598.695312 426.910156 598.480469 426.804688 598.265625 426.695312 L 598.246094 426.6875 C 598.324219 426.734375 598.257812 426.695312 598.269531 426.703125 L 598.15625 426.652344 L 598.007812 426.585938 C 597.90625 426.542969 597.804688 426.496094 597.707031 426.449219 C 597.5 426.363281 597.292969 426.277344 597.085938 426.1875 C 596.875 426.105469 596.664062 426.019531 596.453125 425.933594 C 596.023438 425.765625 595.585938 425.601562 595.136719 425.4375 C 594.691406 425.277344 594.234375 425.121094 593.769531 424.960938 C 591.914062 424.335938 589.933594 423.75 587.898438 423.140625 C 585.859375 422.53125 583.761719 421.910156 581.648438 421.226562 C 579.539062 420.542969 577.421875 419.792969 575.351562 418.9375 C 573.277344 418.085938 571.253906 417.117188 569.359375 415.996094 C 567.464844 414.878906 565.699219 413.605469 564.179688 412.183594 C 562.660156 410.757812 561.398438 409.191406 560.488281 407.59375 C 560.367188 407.398438 560.265625 407.195312 560.160156 406.996094 C 560.105469 406.898438 560.054688 406.800781 560.003906 406.699219 C 559.953125 406.601562 559.910156 406.5 559.863281 406.402344 C 559.769531 406.203125 559.675781 406.007812 559.59375 405.8125 C 559.515625 405.613281 559.4375 405.417969 559.359375 405.226562 C 559.070312 404.449219 558.839844 403.699219 558.691406 402.984375 C 558.65625 402.808594 558.609375 402.636719 558.585938 402.460938 C 558.554688 402.289062 558.527344 402.117188 558.5 401.953125 C 558.488281 401.867188 558.476562 401.785156 558.464844 401.703125 C 558.453125 401.621094 558.445312 401.542969 558.4375 401.460938 C 558.421875 401.300781 558.40625 401.140625 558.390625 400.988281 C 558.371094 400.835938 558.367188 400.683594 558.359375 400.535156 C 558.351562 400.386719 558.34375 400.242188 558.335938 400.101562 C 558.335938 400.03125 558.328125 399.960938 558.328125 399.894531 C 558.328125 399.824219 558.332031 399.757812 558.332031 399.6875 C 558.332031 399.554688 558.335938 399.425781 558.335938 399.296875 C 558.335938 399.046875 558.351562 398.808594 558.367188 398.582031 C 558.382812 398.359375 558.394531 398.152344 558.417969 397.957031 C 558.464844 397.566406 558.503906 397.238281 558.554688 396.980469 C 558.648438 396.460938 558.710938 396.183594 558.710938 396.183594 " fill-opacity="1" fill-rule="nonzero"/></g></svg>