<svg xmlns="http://www.w3.org/2000/svg" xmlns:xlink="http://www.w3.org/1999/xlink" width="100" zoomAndPan="magnify" viewBox="0 0 75 74.999997" height="100" preserveAspectRatio="xMidYMid meet" version="1.0"><defs><clipPath id="3af9ac3704"><path d="M 24.910156 28.292969 L 50.410156 28.292969 L 50.410156 53.792969 L 24.910156 53.792969 Z M 24.910156 28.292969 " clip-rule="nonzero"/></clipPath></defs><g clip-path="url(#3af9ac3704)"><path fill="#3b57ab" d="M 49.042969 49.972656 C 49.042969 51.324219 47.945312 52.425781 46.589844 52.425781 L 28.730469 52.425781 C 27.378906 52.425781 26.277344 51.324219 26.277344 49.972656 L 26.277344 32.113281 C 26.277344 30.757812 27.378906 29.660156 28.730469 29.660156 L 46.589844 29.660156 C 47.945312 29.660156 49.042969 30.757812 49.042969 32.113281 Z M 46.589844 28.292969 L 28.730469 28.292969 C 26.625 28.292969 24.910156 30.003906 24.910156 32.113281 L 24.910156 49.972656 C 24.910156 52.078125 26.625 53.792969 28.730469 53.792969 L 46.589844 53.792969 C 48.695312 53.792969 50.410156 52.078125 50.410156 49.972656 L 50.410156 32.113281 C 50.410156 30.003906 48.695312 28.292969 46.589844 28.292969 " fill-opacity="1" fill-rule="nonzero"/></g><path fill="#3b57ab" d="M 43.105469 38.808594 C 43.105469 39.171875 42.90625 39.425781 42.617188 39.425781 L 40.847656 39.425781 L 40.847656 40.453125 L 41.738281 40.453125 C 42.023438 40.453125 42.226562 40.691406 42.226562 41.023438 C 42.226562 41.300781 42.058594 41.582031 41.738281 41.582031 L 40.847656 41.582031 L 40.847656 43.339844 C 40.847656 43.625 40.566406 43.832031 40.183594 43.832031 C 39.792969 43.832031 39.519531 43.628906 39.519531 43.339844 L 39.519531 38.703125 C 39.519531 38.417969 39.773438 38.210938 40.125 38.210938 L 42.617188 38.210938 C 42.90625 38.210938 43.105469 38.457031 43.105469 38.808594 Z M 38.347656 43.339844 C 38.347656 43.625 38.066406 43.832031 37.683594 43.832031 C 37.289062 43.832031 37.015625 43.628906 37.015625 43.339844 L 37.015625 38.695312 C 37.015625 38.40625 37.285156 38.210938 37.683594 38.210938 C 38.078125 38.210938 38.347656 38.40625 38.347656 38.695312 Z M 34.089844 42.660156 C 34.324219 42.660156 34.636719 42.597656 34.636719 42.039062 L 34.636719 41.816406 L 34.257812 41.816406 C 33.984375 41.816406 33.773438 41.574219 33.773438 41.253906 C 33.773438 40.929688 33.984375 40.6875 34.257812 40.6875 L 35.472656 40.6875 C 35.753906 40.6875 35.96875 40.902344 35.96875 41.1875 L 35.96875 42.039062 C 35.96875 43.207031 35.28125 43.875 34.089844 43.875 C 32.898438 43.875 32.214844 43.207031 32.214844 42.039062 L 32.214844 40.046875 C 32.214844 38.878906 32.886719 38.210938 34.058594 38.210938 C 35.199219 38.210938 35.96875 38.839844 35.96875 39.78125 C 35.96875 40.359375 35.589844 40.425781 35.304688 40.425781 C 34.722656 40.425781 34.644531 40.089844 34.640625 39.941406 C 34.617188 39.621094 34.519531 39.425781 34.09375 39.425781 C 33.839844 39.425781 33.546875 39.496094 33.546875 40.046875 L 33.546875 42.039062 C 33.546875 42.589844 33.835938 42.660156 34.089844 42.660156 Z M 37.660156 33.851562 C 33.695312 33.851562 30.46875 37.078125 30.46875 41.042969 C 30.46875 45.007812 33.695312 48.234375 37.660156 48.234375 C 41.625 48.234375 44.851562 45.007812 44.851562 41.042969 C 44.851562 37.078125 41.625 33.851562 37.660156 33.851562 " fill-opacity="1" fill-rule="nonzero"/><path fill="#3b57ab" d="M 37.660156 49.570312 C 32.960938 49.570312 29.132812 45.742188 29.132812 41.042969 C 29.132812 36.339844 32.960938 32.515625 37.660156 32.515625 C 42.363281 32.515625 46.1875 36.339844 46.1875 41.042969 C 46.1875 45.742188 42.363281 49.570312 37.660156 49.570312 Z M 46.589844 30.992188 L 28.730469 30.992188 C 28.113281 30.992188 27.609375 31.496094 27.609375 32.113281 L 27.609375 49.972656 C 27.609375 50.589844 28.113281 51.09375 28.730469 51.09375 L 46.589844 51.09375 C 47.207031 51.09375 47.710938 50.589844 47.710938 49.972656 L 47.710938 32.113281 C 47.710938 31.496094 47.207031 30.992188 46.589844 30.992188 " fill-opacity="1" fill-rule="nonzero"/></svg>