<svg xmlns="http://www.w3.org/2000/svg" xmlns:xlink="http://www.w3.org/1999/xlink" width="200" zoomAndPan="magnify" viewBox="0 0 150 149.999998" height="200" preserveAspectRatio="xMidYMid meet" version="1.0"><defs><clipPath id="7c8eb3ef9f"><path d="M 44.914062 35.929688 L 104.914062 35.929688 L 104.914062 113.929688 L 44.914062 113.929688 Z M 44.914062 35.929688 " clip-rule="nonzero"/></clipPath></defs><g clip-path="url(#7c8eb3ef9f)"><path fill="#3c3c3b" d="M 101.554688 44.496094 L 88.738281 44.496094 L 81.984375 37.769531 C 81.875 37.664062 81.765625 37.578125 81.660156 37.496094 C 80.589844 36.605469 78.921875 35.96875 77.601562 35.96875 L 48.273438 35.96875 C 46.425781 35.96875 44.914062 37.484375 44.914062 39.332031 L 44.914062 101.996094 C 44.914062 103.84375 46.425781 105.359375 48.273438 105.359375 L 52.113281 105.359375 L 52.113281 110.523438 C 52.113281 112.371094 53.625 113.886719 55.472656 113.886719 L 101.554688 113.886719 C 103.402344 113.886719 104.914062 112.371094 104.914062 110.523438 L 104.914062 47.847656 C 104.914062 46 103.402344 44.496094 101.554688 44.496094 Z M 80.960938 40.605469 L 93.035156 52.605469 L 81.585938 52.605469 C 81.238281 52.605469 80.949219 52.316406 80.949219 51.96875 L 80.949219 40.605469 Z M 47.636719 101.996094 L 47.636719 39.332031 C 47.636719 38.984375 47.925781 38.695312 48.273438 38.695312 L 77.601562 38.695312 C 77.804688 38.695312 78.035156 38.730469 78.273438 38.792969 C 78.25 38.960938 78.238281 39.140625 78.238281 39.320312 L 78.238281 51.957031 C 78.238281 53.804688 79.75 55.320312 81.597656 55.320312 L 94.355469 55.320312 C 94.546875 55.320312 94.726562 55.308594 94.882812 55.285156 C 94.941406 55.523438 94.976562 55.753906 94.976562 55.957031 L 94.976562 101.984375 C 94.976562 102.332031 94.691406 102.621094 94.34375 102.621094 L 48.273438 102.621094 C 47.925781 102.632812 47.636719 102.34375 47.636719 101.996094 Z M 102.191406 110.523438 C 102.191406 110.871094 101.902344 111.160156 101.554688 111.160156 L 55.472656 111.160156 C 55.125 111.160156 54.839844 110.871094 54.839844 110.523438 L 54.839844 105.359375 L 94.355469 105.359375 C 96.203125 105.359375 97.714844 103.84375 97.714844 101.996094 L 97.714844 55.96875 C 97.714844 54.648438 97.078125 53 96.191406 51.933594 C 96.105469 51.824219 96.011719 51.714844 95.890625 51.597656 L 91.488281 47.222656 L 101.554688 47.222656 C 101.902344 47.222656 102.191406 47.511719 102.191406 47.859375 Z M 87.347656 65.515625 L 55.28125 65.515625 C 54.632812 65.515625 54.117188 64.988281 54.117188 64.351562 C 54.117188 63.714844 54.644531 63.1875 55.28125 63.1875 L 87.347656 63.1875 C 87.996094 63.1875 88.511719 63.714844 88.511719 64.351562 C 88.511719 64.988281 87.996094 65.515625 87.347656 65.515625 Z M 87.347656 74.046875 L 55.28125 74.046875 C 54.632812 74.046875 54.117188 73.515625 54.117188 72.878906 C 54.117188 72.242188 54.644531 71.714844 55.28125 71.714844 L 87.347656 71.714844 C 87.996094 71.714844 88.511719 72.242188 88.511719 72.878906 C 88.511719 73.515625 87.996094 74.046875 87.347656 74.046875 Z M 87.347656 82.5625 L 55.28125 82.5625 C 54.632812 82.5625 54.117188 82.03125 54.117188 81.394531 C 54.117188 80.757812 54.644531 80.230469 55.28125 80.230469 L 87.347656 80.230469 C 87.996094 80.230469 88.511719 80.757812 88.511719 81.394531 C 88.511719 82.03125 87.996094 82.5625 87.347656 82.5625 Z M 69.035156 91.089844 L 55.28125 91.089844 C 54.632812 91.089844 54.117188 90.558594 54.117188 89.921875 C 54.117188 89.273438 54.644531 88.757812 55.28125 88.757812 L 69.035156 88.757812 C 69.683594 88.757812 70.199219 89.289062 70.199219 89.921875 C 70.199219 90.558594 69.683594 91.089844 69.035156 91.089844 Z M 69.035156 91.089844 " fill-opacity="1" fill-rule="nonzero"/></g></svg>