<svg xmlns="http://www.w3.org/2000/svg" xmlns:xlink="http://www.w3.org/1999/xlink" width="60" zoomAndPan="magnify" viewBox="0 0 45 51.749998" height="69" preserveAspectRatio="xMidYMid meet" version="1.0"><defs><g/></defs><g fill="#ffffff" fill-opacity="1"><g transform="translate(13.155238, 16.68067)"><g><path d="M 1.359375 8.5 C 1.359375 10.40625 1.691406 11.800781 2.359375 12.6875 C 3.035156 13.570312 4.007812 14.015625 5.28125 14.015625 C 6.625 14.015625 7.628906 13.566406 8.296875 12.671875 C 8.972656 11.773438 9.3125 10.316406 9.3125 8.296875 L 9.3125 6.6875 C 7.875 6.6875 6.503906 6.6875 5.203125 6.6875 C 3.898438 6.6875 2.617188 6.707031 1.359375 6.75 Z M 17.9375 6.75 C 16.71875 6.707031 15.503906 6.6875 14.296875 6.6875 C 13.085938 6.6875 11.867188 6.6875 10.640625 6.6875 L 10.640625 8.21875 C 10.640625 9.96875 10.929688 11.234375 11.515625 12.015625 C 12.097656 12.804688 13.054688 13.203125 14.390625 13.203125 C 15.691406 13.203125 16.609375 12.832031 17.140625 12.09375 C 17.671875 11.351562 17.9375 10.253906 17.9375 8.796875 Z M 19.28125 9.625 C 19.28125 10.625 19.164062 11.515625 18.9375 12.296875 C 18.707031 13.078125 18.378906 13.734375 17.953125 14.265625 C 17.535156 14.804688 17.035156 15.210938 16.453125 15.484375 C 15.878906 15.765625 15.25 15.90625 14.5625 15.90625 C 13.539062 15.90625 12.609375 15.5625 11.765625 14.875 C 10.929688 14.195312 10.351562 13.070312 10.03125 11.5 C 9.894531 12.445312 9.675781 13.257812 9.375 13.9375 C 9.082031 14.625 8.726562 15.179688 8.3125 15.609375 C 7.90625 16.046875 7.441406 16.363281 6.921875 16.5625 C 6.398438 16.757812 5.851562 16.859375 5.28125 16.859375 C 4.625 16.859375 3.976562 16.71875 3.34375 16.4375 C 2.707031 16.164062 2.144531 15.722656 1.65625 15.109375 C 1.164062 14.492188 0.765625 13.695312 0.453125 12.71875 C 0.148438 11.738281 0 10.546875 0 9.140625 L 0 1.265625 L 1.1875 1.265625 L 1.5 3.921875 C 2.707031 3.960938 3.929688 3.984375 5.171875 3.984375 C 6.410156 3.984375 7.664062 3.984375 8.9375 3.984375 L 10.34375 3.984375 C 11.59375 3.984375 12.832031 3.984375 14.0625 3.984375 C 15.289062 3.984375 16.53125 3.960938 17.78125 3.921875 L 18.109375 1.265625 L 19.28125 1.265625 Z M 19.28125 9.625 "/></g></g></g></svg>