<svg xmlns="http://www.w3.org/2000/svg" xmlns:xlink="http://www.w3.org/1999/xlink" width="100" zoomAndPan="magnify" viewBox="0 0 75 74.999997" height="100" preserveAspectRatio="xMidYMid meet" version="1.0"><defs><clipPath id="2545a5f4c1"><path d="M 25.347656 35.257812 L 49.347656 35.257812 L 49.347656 59.257812 L 25.347656 59.257812 Z M 25.347656 35.257812 " clip-rule="nonzero"/></clipPath></defs><g clip-path="url(#2545a5f4c1)"><path fill="#3b57ab" d="M 37.347656 35.257812 C 30.71875 35.257812 25.347656 40.628906 25.347656 47.257812 C 25.347656 53.882812 30.71875 59.257812 37.347656 59.257812 C 43.972656 59.257812 49.347656 53.882812 49.347656 47.257812 C 49.347656 40.628906 43.972656 35.257812 37.347656 35.257812 Z M 37.347656 57.757812 C 31.554688 57.757812 26.847656 53.046875 26.847656 47.257812 C 26.847656 41.46875 31.554688 36.757812 37.347656 36.757812 C 43.136719 36.757812 47.847656 41.46875 47.847656 47.257812 C 47.847656 53.046875 43.136719 57.757812 37.347656 57.757812 Z M 37.347656 57.757812 " fill-opacity="1" fill-rule="nonzero"/></g><path fill="#3b57ab" d="M 34.347656 44.320312 C 34.347656 44.519531 34.308594 44.710938 34.230469 44.894531 C 34.15625 45.078125 34.046875 45.238281 33.90625 45.378906 C 33.765625 45.519531 33.605469 45.628906 33.421875 45.707031 C 33.234375 45.78125 33.042969 45.820312 32.847656 45.820312 C 32.648438 45.820312 32.457031 45.78125 32.273438 45.707031 C 32.089844 45.628906 31.925781 45.519531 31.785156 45.378906 C 31.644531 45.238281 31.535156 45.078125 31.460938 44.894531 C 31.382812 44.710938 31.347656 44.519531 31.347656 44.320312 C 31.347656 44.121094 31.382812 43.929688 31.460938 43.746094 C 31.535156 43.5625 31.644531 43.398438 31.785156 43.257812 C 31.925781 43.117188 32.089844 43.007812 32.273438 42.933594 C 32.457031 42.855469 32.648438 42.820312 32.847656 42.820312 C 33.042969 42.820312 33.234375 42.855469 33.421875 42.933594 C 33.605469 43.007812 33.765625 43.117188 33.90625 43.257812 C 34.046875 43.398438 34.15625 43.5625 34.230469 43.746094 C 34.308594 43.929688 34.347656 44.121094 34.347656 44.320312 Z M 34.347656 44.320312 " fill-opacity="1" fill-rule="nonzero"/><path fill="#3b57ab" d="M 43.347656 44.320312 C 43.347656 44.519531 43.308594 44.710938 43.230469 44.894531 C 43.15625 45.078125 43.046875 45.238281 42.90625 45.378906 C 42.765625 45.519531 42.605469 45.628906 42.421875 45.707031 C 42.234375 45.78125 42.042969 45.820312 41.847656 45.820312 C 41.648438 45.820312 41.457031 45.78125 41.273438 45.707031 C 41.089844 45.628906 40.925781 45.519531 40.785156 45.378906 C 40.644531 45.238281 40.535156 45.078125 40.460938 44.894531 C 40.382812 44.710938 40.347656 44.519531 40.347656 44.320312 C 40.347656 44.121094 40.382812 43.929688 40.460938 43.746094 C 40.535156 43.5625 40.644531 43.398438 40.785156 43.257812 C 40.925781 43.117188 41.089844 43.007812 41.273438 42.933594 C 41.457031 42.855469 41.648438 42.820312 41.847656 42.820312 C 42.042969 42.820312 42.234375 42.855469 42.421875 42.933594 C 42.605469 43.007812 42.765625 43.117188 42.90625 43.257812 C 43.046875 43.398438 43.15625 43.5625 43.230469 43.746094 C 43.308594 43.929688 43.347656 44.121094 43.347656 44.320312 Z M 43.347656 44.320312 " fill-opacity="1" fill-rule="nonzero"/><path fill="#3b57ab" d="M 42.949219 49.597656 C 42.578125 49.398438 42.121094 49.535156 41.917969 49.902344 C 41.90625 49.929688 40.460938 52.527344 37.347656 52.527344 C 34.1875 52.527344 32.835938 50.023438 32.78125 49.917969 C 32.589844 49.546875 32.128906 49.398438 31.757812 49.589844 C 31.386719 49.78125 31.238281 50.238281 31.429688 50.613281 C 31.503906 50.753906 33.242188 54.046875 37.347656 54.046875 C 41.355469 54.046875 43.179688 50.765625 43.253906 50.628906 C 43.453125 50.257812 43.316406 49.796875 42.949219 49.597656 Z M 42.949219 49.597656 " fill-opacity="1" fill-rule="nonzero"/></svg>